<svg id="icons" enable-background="new 0 0 443.294 443.294" height="512" viewBox="0 0 64 64" width="512" xmlns="http://www.w3.org/2000/svg"><g><path d="m35.006.002c-.002 0-.004-.001-.006-.001h-8.988c-.553 0-1 .447-1 1v3c0 .553.447 1 1 1h7.979v2.024c-11.668.525-21 10.179-21 21.975 0 12.131 9.869 22 22 22s22-9.869 22-22c0-11.796-9.332-21.449-21-21.975v-1.998c12.775.522 23.009 11.073 23.009 23.974 0 13.208-10.725 23.955-23.923 23.997h-15.071c-2.417 0-4.439 1.723-4.904 4.005h-1.104c-.553 0-1 .447-1 1v4.996c0 .553.447 1 1 1h46c.553 0 1-.447 1-1v-4.996c0-.553-.447-1-1-1h-1.104c-.464-2.278-2.48-3.998-4.893-4.003-.004 0-.006-.002-.01-.002h-2.714c7.926-5.358 12.723-14.25 12.723-23.997 0-15.988-13.007-28.996-28.994-28.999zm19.984 28.998c0 11.028-8.972 20-20 20s-20-8.972-20-20 8.972-20 20-20 20 8.972 20 20zm4.008 32.999h-44v-2.996h44zm-2.186-4.996h-39.627c.414-1.164 1.517-2.005 2.821-2.005h14.984c.004 0 .006.002.01.002.025 0 .051-.002.077-.002h12.532c.005 0 .01.002.015.002.006 0 .012-.002.017-.002h6.347c.002 0 .003.001.005.001 1.303 0 2.404.84 2.819 2.004zm-9.441-4.005h-2.373c9.388-3.926 16.002-13.202 16.002-23.997 0-14.334-11.66-25.996-25.994-25.999-.002 0-.004-.001-.006-.001h-7.988v-1h7.983c.002 0 .003.001.005.001 14.888 0 27 12.111 27 26.999 0 10.166-5.602 19.337-14.629 23.997z" fill="#DEB327" /><path d="m24.99 29c0 5.514 4.486 10 10 10s10-4.486 10-10-4.486-10-10-10-10 4.486-10 10zm18 0c0 4.411-3.589 8-8 8s-8-3.589-8-8 3.589-8 8-8 8 3.589 8 8z" fill="#DEB327" /><path d="m3 17.005h1.002v31c0 .553.447 1 1 1h3c.553 0 1-.447 1-1v-31h.998c1.654 0 3-1.346 3-3v-2c0-1.654-1.346-3-3-3h-7c-1.654 0-3 1.346-3 3v2c0 1.654 1.346 3 3 3zm4.002 30h-1v-30h1zm-5.002-35c0-.552.448-1 1-1h7c.552 0 1 .448 1 1v2c0 .552-.448 1-1 1h-1.998-3-2.002c-.552 0-1-.448-1-1z" fill="#DEB327" /></g></svg>